# xmcd
# 
# Track frame offsets:
#     150
#     14027
#     22757
#     44965
#     64067
#     79822
#     99217
#     115005
#     138445
#     153965
#     165025
#     184952
#     214035
#     230052
#     244492
#     267670
#     309895
# 
# Disc length: 4795
# 
# Revision: 4
# Processed by: cddbd v1.5.2PL0 Copyright (c) Steve Scherf et al.
# Submitted via: fre:ac v1.1beta1pre5
# 
DISCID=e412b911
DTITLE=Coco d'Or - Coco d'Or
DYEAR=2004
DGENRE=J-Jazz
TTITLE0=Route 66
TTITLE1=Avalon
TTITLE2=And The Melody Still Lingers On (Night In Tunisia)
TTITLE3=Free
TTITLE4=Fly Me To The Moon
TTITLE5=Summertime
TTITLE6=The Face I Love
TTITLE7=The Girl From Ipanema (イパネマの娘)
TTITLE8=It's Only A Paper Moon
TTITLE9=Orange Colored Sky (オレンジ色の空)
TTITLE10=The Very Thought Of You (君を想い出)
TTITLE11=(I Can Recall) Spain
TTITLE12=You'd Be So Nice To Come Home To
TTITLE13=I Can't Give You Anything But Love (捧ぐるは愛のみ)
TTITLE14=You're Everything
TTITLE15=Calling You
TTITLE16=data
EXTD=YEAR: 2004
EXTT0=
EXTT1=
EXTT2=
EXTT3=
EXTT4=
EXTT5=
EXTT6=
EXTT7=
EXTT8=
EXTT9=
EXTT10=
EXTT11=
EXTT12=
EXTT13=
EXTT14=
EXTT15=
EXTT16=
PLAYORDER=
